<?xml version="1.0" standalone="no"?>
<!DOCTYPE svg PUBLIC "-//W3C//DTD SVG 20010904//EN"
 "http://www.w3.org/TR/2001/REC-SVG-20010904/DTD/svg10.dtd">
<svg version="1.0" xmlns="http://www.w3.org/2000/svg"
 width="200.000000pt" height="200.000000pt" viewBox="0 0 200.000000 200.000000"
 preserveAspectRatio="xMidYMid meet">
<metadata>
Created by potrace 1.15, written by Peter Selinger 2001-2017
</metadata>
<g transform="translate(0.000000,200.000000) scale(0.100000,-0.100000)"
fill="#FFF" stroke="none">
<path d="M824 1745 c-126 -27 -284 -108 -310 -157 -40 -76 10 -158 96 -158 19
0 56 14 88 34 307 187 710 48 836 -286 13 -35 27 -85 31 -111 l7 -47 -70 0
c-100 0 -132 -8 -132 -33 0 -45 193 -351 256 -407 28 -24 39 -28 53 -20 36 19
177 212 250 342 53 94 38 114 -85 117 -55 1 -64 9 -64 59 0 48 -32 156 -70
237 -102 220 -295 373 -540 430 -80 18 -262 18 -346 0z"/>
<path d="M230 1310 c-71 -96 -166 -248 -193 -309 -25 -58 -16 -65 88 -70 l84
-3 6 -47 c45 -326 272 -580 589 -661 109 -28 283 -28 392 0 96 25 230 90 270
131 23 24 29 39 29 75 0 39 -5 50 -33 75 -46 41 -82 38 -184 -16 -142 -76
-274 -93 -422 -55 -43 11 -101 32 -129 47 -74 39 -198 165 -235 238 -33 66
-62 156 -62 192 0 21 4 23 53 23 76 0 128 11 134 28 3 8 -4 35 -17 61 -33 68
-164 262 -217 321 -64 72 -79 69 -153 -30z"/>
</g>
</svg>
